<?xml version="1.0" encoding="UTF-8"?>
<svg xmlns="http://www.w3.org/2000/svg" viewBox="0 0 2020 1000">
  <defs>
    <style>
      .cls-1 {
        fill: #fff;
      }
    </style>
  </defs>
  
  <g id="Layer_1" data-name="Layer 1">
    <g>
      <g>
        <path class="cls-1" d="M1431.85,346.61c4.24,4.49,3.59,14.81,8.08,21.01,5.83,8.05,23.29,10.92,23.23,23.83-11.6,49.32-15.15,102.73-27.17,151.63-12.04,48.96-11.19,30.71-41.16,57.28-25.26,22.4-51.05,57.52-86.13,66.06-12.75,3.1-58.4,7.55-70.49,5.24-20.97-4-44.75-41.62-69.7-28.94-18.58,9.44-18.63,113.16-36.45,138.02-18.32,25.56-65.23,23.15-57.2-16.5,29.09-136.35,42.91-279.27,72.73-415.02,5.38-24.5,2.93-46.96,33.32-51.85,46.04-7.4,32.15,32.81,56.8,30.44,10.54-1.01,45.99-26.81,68.58-30.34,40.28-6.31,60.77-1.49,92.35,21.94,3.85,2.86,31.68,25.61,33.19,27.2ZM1387.09,413.77c-33.46-15.93-63.57-40.01-103.01-35.86-75.93,7.98-97.01,79.46-101.62,144.92-2.22,31.5,10.4,18.88,20.92,29.45,3.95,3.97,2.2,11.91,8.65,17.09,15.39,12.37,50.05,19.79,69.75,16.53,20.1-3.33,81.15-35.71,89.47-53.76,6.26-13.59,23.3-111.17,15.84-118.37Z"/>
        <path class="cls-1" d="M714.36,373.47c4.11,4.07,5.44,12.68,5.2,18.47-.62,15.18-16.27,96.03-22.6,107.25-11.37,20.18-38.33,23.68-59.72,25.35-59.12,4.61-124.08-3.76-183.88-.18l-14.75,15.77c30.83,29.26,66.07,50.13,110.27,39.3,32.93-8.07,67.26-48.73,103.23-20.91,2.94,17.02-.64,48.92-15.54,59.24-62.59,24.23-110.87,72.32-182.72,40.25-21.77-9.72-69.49-59.57-80.82-80.33-6.38-11.7-3.91-21.25-2.99-33.22,1.75-22.66,22.53-148.42,30.74-161.96,7.69-12.69,19.42-10.9,29.08-18.92,5.65-4.69,7.75-12.99,14.41-18.12,13.75-10.6,72.57-51.22,85.53-53.28,15.5-2.46,78.41-2.59,92.89.69,17.2,3.89,36.54,30.1,48.25,41.27,4.8,4.58,14.22,5.33,17.72,9.14,5.82,6.34,3.05,16.23,8.83,22.55,3.67,4.01,13.12,3.93,16.86,7.64ZM530.64,377.94c-29.81,4.71-55.63,28.89-74.65,50.95-.87,4.88,4.68,10.87,8.68,12.73,9.29,4.32,137,4.43,154.58,2.38,15.54-1.81,31.87-7.61,20.31-24.89-25.41-37.97-65.06-48.11-108.92-41.17Z"/>
        <path class="cls-1" d="M1089.54,350.72c5.52,8.58-11.07,94.61-14.14,111.91-5.28,29.74-15.37,58.89-20.63,86.7-4.51,23.86-.76,53.89-9.61,79.82-6.27,18.37-62.09,55.58-65.89,12.65-4.11-46.4,32.07-143.39,34.4-196.36,1.18-26.83-35.16-62.07-53.7-39.84-18.25,21.89-10.71,131.42-41.91,150.34-19.24,11.67-43.85-7.73-46.51-25.76-2.8-18.95,14.84-77.03,17.01-101.97.76-8.75,4.83-34.41-6.77-33.66-13.42.86-47.6,22.77-53.75,35.84-21.02,63.46-20.36,140.16-38.46,203.02-2.39,8.31-7.43,26.05-15.96,28.91-14.92,1.89-49.09-1.39-50.8-19.61-1.9-20.18,20.58-39.01,21.57-49.75.77-8.38-11.77-18.86-7.81-29.88,15.75-36.66,33.74-244.43,50.05-261.19,6.61-6.8,40.4-7.5,49.67-4.65,12.4,3.81,10.28,23.53,27.49,21.74,12.31-1.28,17.78-18.65,28.02-21.67,9.05-2.66,42.95-3.27,48.33,3.59,4.61,5.86.69,17.01,13.53,18.21,14.49,1.36,20.2-16.59,33.3-20.72,9.12-2.88,29.19-3.78,38.38-2.01,9.18,1.77,38.76,38.65,47.23,46.79,4.76,4.57,15.69,5.55,16.98,7.55Z"/>
        <path class="cls-1" d="M1636.12,297.34c12.31-2.77,94.79-3.16,105.66,0,1.86.54,28.74,18.44,32.41,21.3,17.62,13.75,25.97,31.01,37.68,47.34,5.25,7.31,22.46,9.12,22.32,21.69-13.3,50.74-14.55,110.1-27.75,160.05-13.48,51-94.72,96.68-139.83,120.14-23.39-10.1-79.53,1.58-96.48-7.05-8.63-4.39-7.53-18.19-13.39-22.41-8.16-5.88-19.69-1.71-33.71-15.54-15.02-14.81-14.09-32.38-22.58-44.52-4.79-6.85-17.1-7.7-18.55-20.94l32.5-175.87c30.67-14.78,49.62-42,78.49-60.27,7.65-4.84,37.02-22.53,43.23-23.92ZM1622.47,377.59c-9.28,19.96-43.59,35.92-51.25,51.68-5.21,10.71-21.04,100.02-19.05,110.68,2.09,11.16,49.93,37.58,62.79,40.36,12.97,2.81,29.35,3.92,42.35,1.89,14-2.19,72.98-29.59,80.92-39.93,9.67-12.61,22.6-96.57,19.88-113.74-6.37-40.26-101.84-60.28-135.65-50.94Z"/>
        <path class="cls-1" d="M462.98,202.53c16.38,4.53,6.59,50.56-.38,62.2-20.71,34.57-130.55,5.49-145.53,25.8-5.92,8.03-9.28,34.01-11.71,45.29-19.48,90.29-25.48,198.82-50.03,285.35-5.15,18.16-11.43,37.76-34.3,37.56-15.99-.14-35.85-11.03-33.59-29.18l58.37-330.7c-5.16-39.9-122.99-8.69-134.55-22.36-12.63-14.75,1.03-73.96,20.18-73.96h331.55Z"/>
      </g>
      <path class="cls-1" d="M1904.94,648.63c-3.43,4.45-28.8,16.25-34.82,17.18-5.6.87-12.65.39-18.24-.81-5.53-1.2-26.12-12.57-27.02-17.38-.86-4.58,5.95-43.01,8.2-47.62,3.3-6.78,18.06-13.66,22.06-22.25,14.55-4.01,55.63,4.6,58.37,21.93,1.17,7.39-4.39,43.53-8.54,48.95Z"/>
    </g>
  </g>
</svg>